<svg width="240" height="70" viewBox="0 0 240 70" class="css-1j8o68f"><defs id="SvgjsDefs2118"></defs><g id="SvgjsG2119" featurekey="rootContainer" transform="matrix(1,0,0,1,0,0)" fill="#ffffff"><rect xmlns="http://www.w3.org/2000/svg" width="240" height="70" rx="10" ry="10"></rect></g><g id="SvgjsG2120" featurekey="q4o0QG-0" transform="matrix(1.9853087576044972,0,0,1.9853087576044972,19.245584574914954,10.113162349262845)" fill="#434128"><path d="M3.84 5.039999999999999 l0.54 0.22 l0.74 6 l0.26 -0.04 l1.04 -6.18 l3.56 0.42 c0.02 0.64 0.12 2.48 0.18 4.14 c0.02 0.98 0.04 2.06 0.04 3.2 l0.12 5.08 l0 1.66 l-0.1 0.46 l0 0.12 c-0.26 0.02 -0.52 0.02 -0.8 0.02 c-0.42 0 -0.96 0.04 -1.38 -0.02 l-0.5 -7.98 l-0.38 0.2 l-1.02 7.62 l-1.76 0.06 l-1.1 -7.58 l-0.84 -0.28 l-0.22 7.92 l-1.84 0 l0.24 -14.8 z M13.3 13.379999999999999 l2 -0.1 l-0.06 -2.78 l-0.5 -1.94 l-1.24 -0.1 z M13.840000000000002 5.199999999999999 l1.28 0 l2.62 0.18 l0.54 7.26 l0.2 7.24 l-0.6 0.04 l-2.26 0.1 l-0.24 0 l-0.18 -4.5 l-1.88 -0.12 l-0.5 4.6 l-1.96 0.06 l0.64 -7.48 l0.58 -4.28 l0.42 -3 z M19.62 8.88 l3.2 0.08 l-0.16 2.5 l0.24 5.08 l-0.14 3.38 l-0.28 0.04 l-2.8 -0.06 l-0.12 -0.92 l-0.04 -5.36 z M19.740000000000002 4.98 l3.02 0.04 l0.14 0.78 l0 1.34 l-0.08 0.72 l-3.2 0.02 l-0.1 -1.3 l-0.04 -1.4 z M31.260000000000005 6.16 l0.38 2.7 l-0.02 0.08 c0 0.02 -0.08 0.96 -0.12 1.9 c-0.04 0.54 -0.08 1.18 -0.1 1.88 l-0.72 1.28 l-1.92 0.64 l-1.7 0.08 l0.28 3.36 l0.1 1.7 l-1.38 0.16 c-0.14 0 -0.38 0.02 -0.6 0.04 c-0.14 0.02 -0.28 0.02 -0.42 0.02 l-0.7 -0.12 l0 -3.04 l-0.12 -1.98 c-0.02 -0.42 -0.02 -0.8 -0.02 -1.14 c-0.02 -0.62 -0.02 -1.22 -0.02 -1.44 l0 -4.62 l0.08 -2.36 l0.78 0 c0.46 0 1 -0.02 1.5 -0.02 c0.98 0 2.02 -0.04 2.28 0.02 c0.22 0.06 0.66 0.1 1.04 0.16 l0.7 0.12 z M28.440000000000005 12.68 l0.3 -0.3 c0 -0.32 0.1 -2.02 0.1 -2.22 s-0.18 -0.9 -0.22 -1.1 l-0.48 -0.52 l-0.68 -0.16 l-1.36 0 l-0.12 0.34 l-0.08 1.44 l0.16 2.52 l0.8 0.16 z M34.540000000000006 13.379999999999999 l2 -0.1 l-0.06 -2.78 l-0.5 -1.94 l-1.24 -0.1 z M35.080000000000005 5.199999999999999 l1.28 0 l2.62 0.18 l0.54 7.26 l0.2 7.24 l-0.6 0.04 l-2.26 0.1 l-0.24 0 l-0.18 -4.5 l-1.88 -0.12 l-0.5 4.6 l-1.96 0.06 l0.64 -7.48 l0.58 -4.28 l0.42 -3 z M50.56 16.48 l-0.08 -1.84 c0.34 0 2.6 0.04 3 0.1 l-0.14 4.86 l-1.22 0.54 l-2.24 0 l-2.6 0.08 l-0.72 -0.6 l-0.82 -1.42 l0 -2.66 l-0.18 -3.34 l0.08 -3.06 l0.28 -3.26 l2.06 -0.64 l3.2 -0.12 l0.4 0.02 l0.4 0.08 l1.32 0.52 l0 1.02 l0.04 3.06 l-0.1 0.74 l-1.36 0.2 l-1.46 -0.2 l-0.18 -2.38 l-0.4 -0.3 l-0.92 0.14 l-0.3 1.16 c0 0.22 0.06 1.2 0.06 2.1 c0.04 0.54 0.06 1.12 0.06 1.78 c0 0.9 0.04 1.72 0.1 2.48 c0.04 1.3 0.18 2.72 0.16 3.22 l1.48 0.04 z M58.06 5.199999999999999 l0 12.2 l1.5 0.28 l1.46 0.04 l-0.14 2.26 l-1.14 0 l-3.8 0.14 l-1.26 -0.04 l-0.26 -13.28 l0.12 -1.44 z M69.14 7.199999999999999 l-0.08 10.84 l-0.22 1.44 l-0.64 0.52 l-2.04 0.22 l-3.74 -0.36 l-0.54 -0.54 l-0.38 -0.82 l0.08 -3.44 c0 -1.5 0.02 -2.86 0.06 -4.06 c-0.02 -2.04 0 -4.08 0.06 -4.18 c0 -0.08 0.12 -0.42 0.34 -0.74 l0.26 -0.64 l3.16 -0.3 l2.26 0.28 l1.12 0.44 z M65.52 17.3 l0.74 -0.3 l0.24 -7.48 l-0.48 -0.28 l-1.92 -0.04 l-0.18 0.68 l0.04 2.82 l0 4.48 l0.32 0.06 z M70.03999999999999 5.359999999999999 l4.06 -0.12 l2.12 0.08 l0.6 0.04 l-0.22 2.9 l-1.6 -0.1 l0.12 11.84 l-3.54 0.04 l0.18 -7.04 l0.08 -4.88 l-1.94 -0.18 z M83.27999999999999 12.219999999999999 l-0.28 -6.92 l0.16 0 l1.7 0.04 l0.5 14.64 l-2.24 0.1 l-0.1 -5.82 l-2.16 0.12 l-0.14 5.62 l-2.36 0 l-0.82 -0.04 l0 -2.56 l-0.16 -4.62 l0.2 -7.48 l3.32 0.06 l-0.08 6.92 z M86.52 19.92 l-0.04 -6.94 l0.08 -0.74 l-0.04 -0.74 l0.1 -4.42 l0.18 -1.72 l6.5 0.12 l0.1 3.9 l-4.26 0 l-0.08 2.5 l3.26 -0.06 l0 0.22 l0.1 1.7 l-3.04 0.06 l0.1 2.96 l4.06 0.2 l0 3.08 z M100.53999999999999 5.52 l0.52 0.86 l0 2.44 l-0.06 1.24 l-2.68 -0.14 l0 -0.78 l0 -1.06 l-1.32 0.02 l-0.22 0.56 l0.22 2.72 l2.06 0.12 l2 0.24 l0.06 2.54 l0 1.8 l-0.26 3.14 l-1.8 0.88 l-2.64 -0.12 l-1.2 -0.48 l-0.6 -0.46 l-0.28 -1.46 l0.1 -2.48 l0.1 -0.8 l0.68 0.04 l1.56 0.18 l0 0.6 l0 0.66 l0 0.34 l0 0.54 l1.88 0.22 l0.06 -3.6 l-3.98 -0.22 l-0.16 -4.4 l-0.04 -2.88 l0.66 -0.48 c0.46 -0.02 0.86 -0.06 1.24 -0.1 c0.64 -0.06 1.28 -0.1 1.42 -0.1 c0.1 0 0.46 0.02 0.8 0.04 l0.64 0.04 z"></path></g></svg>